<?xml version="1.0" encoding="utf-8"?>
<!-- Generator: Adobe Illustrator 16.2.1, SVG Export Plug-In . SVG Version: 6.00 Build 0)  -->
<!DOCTYPE svg PUBLIC "-//W3C//DTD SVG 1.1//EN" "http://www.w3.org/Graphics/SVG/1.1/DTD/svg11.dtd">
<svg version="1.1" xmlns="http://www.w3.org/2000/svg" xmlns:xlink="http://www.w3.org/1999/xlink" x="0px" y="0px" width="39.5px"
	 height="100.5px" viewBox="0 0 39.5 100.5" enable-background="new 0 0 39.5 100.5" xml:space="preserve">
<g id="Layer_1">
	<rect x="-0.5" y="-0.5" width="40" height="101"/>
</g>
<g id="Layer_2">
	<g id="XMLID_1_">
		<g>
			<g>
				<polygon fill="#FFFFFF" points="35.905,0 25.853,67.249 21.327,58.374 26.136,58.374 26.136,50.657 17.418,50.657 
					14.853,50.657 14.853,31.331 22.58,42.703 26.781,29.241 30.731,29.246 28.495,23.751 				"/>
				<polygon fill="#FFFFFF" points="28.495,23.751 30.731,29.246 26.781,29.241 				"/>
				<polygon fill="#FFFFFF" points="30.731,81.403 27.577,89.188 7.175,89.188 7.175,82.791 14.853,58.74 14.853,81.474 				"/>
				<polygon fill="#FFFFFF" points="28.495,23.751 26.781,29.241 14.853,29.219 14.853,31.331 13.291,29.033 7.175,66.966 
					7.175,21.5 27.577,21.5 				"/>
				<polygon fill="#FFFFFF" points="26.136,50.657 26.136,58.374 21.327,58.374 17.418,50.705 17.418,50.657 				"/>
				<polygon fill="#FFFFFF" points="17.418,50.705 21.327,58.374 14.971,58.374 				"/>
				<polygon fill="#FFFFFF" points="17.418,50.657 17.418,50.705 14.971,58.374 14.853,58.374 14.853,58.74 7.175,82.791 
					7.175,66.966 13.291,29.033 14.853,31.331 14.853,50.657 				"/>
				<polygon fill="#FFFFFF" points="14.971,58.374 14.853,58.74 14.853,58.374 				"/>
				<polygon fill="#FFFFFF" points="7.175,66.966 7.175,82.791 2.02,98.941 				"/>
			</g>
		</g>
		<g>
			<g>
				<polygon fill="#808080" points="35.905,0 25.853,67.249 21.327,58.374 26.136,58.374 26.136,50.657 17.418,50.657 
					14.853,50.657 14.853,31.331 22.58,42.703 26.781,29.241 30.731,29.246 28.495,23.751 				"/>
				<polygon fill="#FFFFFF" points="28.495,23.751 30.731,29.246 26.781,29.241 				"/>
				<polygon fill="#FFFFFF" points="30.731,81.403 27.577,89.188 7.175,89.188 7.175,82.791 14.853,58.74 14.853,81.474 				"/>
				<polygon fill="#FFFFFF" points="28.495,23.751 26.781,29.241 14.853,29.219 14.853,31.331 13.291,29.033 7.175,66.966 
					7.175,21.5 27.577,21.5 				"/>
				<polygon fill="#FFFFFF" points="26.136,50.657 26.136,58.374 21.327,58.374 17.418,50.705 17.418,50.657 				"/>
				<polygon fill="#FFFFFF" points="17.418,50.705 21.327,58.374 14.971,58.374 				"/>
				<polygon fill="#808080" points="17.418,50.657 17.418,50.705 14.971,58.374 14.853,58.374 14.853,58.74 7.175,82.791 
					7.175,66.966 13.291,29.033 14.853,31.331 14.853,50.657 				"/>
				<polygon fill="#999999" points="14.971,58.374 14.853,58.74 14.853,58.374 				"/>
				<polygon fill="#808080" points="7.175,66.966 7.175,82.791 2.02,98.941 				"/>
			</g>
		</g>
	</g>
</g>
</svg>
